#N canvas 380 95 1015 658 10;
#X obj 187 31 inlet;
#X obj 46 32 inlet;
#X obj 124 88 spigot;
#X obj 183 415 vline~;
#X obj 73 509 *~ 0.2;
#X obj 73 463 fmsynth 1 1.995;
#X obj 125 131 ftom;
#X obj 127 224 mtof;
#X obj 125 176 - 24;
#X msg 183 375 1 50 \, 0 1000 50;
#X obj 79 562 outlet~;
#X connect 0 0 2 1;
#X connect 1 0 2 0;
#X connect 2 0 6 0;
#X connect 3 0 5 1;
#X connect 4 0 10 0;
#X connect 5 0 4 0;
#X connect 6 0 8 0;
#X connect 7 0 9 0;
#X connect 7 0 5 0;
#X connect 8 0 7 0;
#X connect 9 0 3 0;
