#N canvas 207 133 1440 778 10;
#X obj 307 454 dac~;
#X obj 24 23 adc~;
#X obj 544 65 r Pot_A @owl A;
#X obj 572 331 r Pot_B @owl B;
#X obj 76 430 r Pot_D @owl D;
#X obj 119 313 r Button_1 @owl B1;
#X obj 321 66 r Button_2 @owl B2;
#X obj 147 118 r Pot_C @owl C;
#X obj 361 339 loadbang;
#X obj 119 357 tgl 15 0 empty empty CHORUS 17 7 0 10 -4032 -1 -1 1
1;
#X obj 119 335 sel 1;
#X obj 50 377 *~;
#X obj 300 152 delwrite~ chorus-buffer 50;
#X obj 307 233 vd~ chorus-buffer 0;
#X obj 307 213 +~ 20;
#X obj 321 110 tgl 15 0 empty empty ON 17 7 0 10 -4032 -1 -1 0 1;
#X obj 321 88 sel 1;
#X obj 543 300 *~;
#X obj 574 313 hsl 128 15 0 1 0 0 empty empty VOL -2 -8 0 10 -4034
-1 -1 0 1;
#X floatatom 543 158 0 0 1000 0 - - -;
#X obj 543 198 line~;
#X obj 546 139 hsl 128 15 100 600 0 0 empty empty TIME -2 -8 0 10 -4034
-1 -1 0 1;
#X obj 543 178 pack 0 600;
#X obj 543 238 *~ 1.6;
#X obj 544 107 + 100;
#X obj 544 86 * 500;
#X obj 307 253 *~ 0.9;
#X obj 50 410 *~;
#X obj 79 410 hsl 128 15 0 1 0 0 empty empty DELAY -2 -8 0 10 -4034
-1 -1 0 1;
#X obj 801 410 s CV_OUT_2 @owl G;
#X obj 801 208 s CV_OUT_1 @owl F;
#X obj 562 354 delwrite~ delay-buffer 600;
#X obj 543 218 vd~ delay-buffer 0;
#X obj 801 187 snapshot~;
#X obj 809 125 /~ 2;
#X obj 809 145 +~ 0.5;
#X obj 300 131 *~ 0;
#X obj 801 65 metro 50;
#X obj 809 105 *~ 1;
#X obj 76 377 s BUTTON_A @owl B1;
#X obj 360 131 s BUTTON_B @owl B2;
#X obj 360 109 spigot;
#X obj 76 355 spigot;
#X msg 360 88 1;
#X msg 76 333 1;
#X obj 809 85 osc~ 0.16;
#X obj 801 389 snapshot~;
#X obj 809 327 /~ 2;
#X obj 809 347 +~ 0.5;
#X obj 809 307 *~ 1;
#X obj 809 287 osc~ 0.12;
#X text 812 20 ORBITERS;
#X text 574 30 (filtered delay);
#X text 361 30 (chorus);
#X obj 809 166 *~ 0.2;
#X obj 809 368 *~ 0.15;
#X text 777 30 (dual attenuated lfo);
#X obj 307 193 *~ 2.5;
#X obj 307 173 osc~ 0.5;
#X obj 543 258 hip~ 762.6;
#X obj 543 279 lop~ 1244;
#X msg 159 244 16.8;
#X msg 657 411 36.9;
#X obj 543 392 delwrite~ dly-sprd-buff 37;
#X obj 543 411 vd~ dly-sprd-buff;
#X obj 45 223 delwrite~ amp-sprd-buff 20;
#X obj 45 244 vd~ amp-sprd-buff;
#X obj 45 170 bp~ 1000 0.629;
#X obj 45 139 clip~ -0.45 0.45;
#X obj 45 97 *~;
#X obj 105 99 hsl 128 15 0.0314 1 0 0 empty empty GAIN -2 -8 0 10 -257985
-1 -1 0 1;
#X obj 45 76 hip~ 50;
#X obj 45 118 *~ 200;
#X msg 860 267 0.5;
#X msg 860 65 1;
#X obj 90 118 + 0.0314;
#X obj 45 191 /~ 15;
#X text 104 20 MUDD-DRIVER;
#X text 372 20 ORUS;
#X text 591 20 SPICE-TIME;
#X text 101 30 (guitar Amp);
#X msg 150 139 0.0314;
#X obj 445 538 vu 15 120 empty empty -1 -8 0 10 -66577 -1 1 0;
#X obj 200 565 env~;
#X obj 205 617 - 70;
#X obj 24 334 *~ 10;
#X obj 39 544 sel 0 1;
#X msg 29 580 0;
#X msg 69 581 1;
#X obj 143 602 *~;
#X obj 53 508 tgl 15 0 empty empty empty 17 7 0 10 -262144 -1 -1 1
1;
#X obj 119 377;
#X obj 218 21 inlet;
#X obj 258 21 inlet;
#X obj 297 21 inlet;
#X obj 198 686 outlet;
#X obj 27 270 *~ 0.1;
#X connect 1 0 96 0;
#X connect 1 1 71 0;
#X connect 2 0 25 0;
#X connect 3 0 18 0;
#X connect 4 0 28 0;
#X connect 5 0 10 0;
#X connect 6 0 16 0;
#X connect 7 0 75 0;
#X connect 8 0 37 0;
#X connect 8 0 61 0;
#X connect 8 0 62 0;
#X connect 8 0 73 0;
#X connect 8 0 74 0;
#X connect 8 0 81 0;
#X connect 9 0 42 1;
#X connect 9 0 11 1;
#X connect 9 0 91 0;
#X connect 10 0 9 0;
#X connect 11 0 12 0;
#X connect 13 0 26 0;
#X connect 14 0 13 0;
#X connect 15 0 36 1;
#X connect 15 0 41 1;
#X connect 16 0 15 0;
#X connect 17 0 31 0;
#X connect 17 0 63 0;
#X connect 17 0 0 0;
#X connect 18 0 17 1;
#X connect 19 0 22 0;
#X connect 20 0 32 0;
#X connect 21 0 19 0;
#X connect 22 0 20 0;
#X connect 23 0 59 0;
#X connect 24 0 21 0;
#X connect 25 0 24 0;
#X connect 26 0 0 0;
#X connect 26 0 0 1;
#X connect 27 0 31 0;
#X connect 28 0 27 1;
#X connect 32 0 23 0;
#X connect 33 0 30 0;
#X connect 34 0 35 0;
#X connect 35 0 54 0;
#X connect 36 0 12 0;
#X connect 37 0 33 0;
#X connect 37 0 43 0;
#X connect 37 0 44 0;
#X connect 37 0 46 0;
#X connect 38 0 34 0;
#X connect 41 0 40 0;
#X connect 42 0 39 0;
#X connect 43 0 41 0;
#X connect 44 0 42 0;
#X connect 45 0 38 0;
#X connect 46 0 29 0;
#X connect 47 0 48 0;
#X connect 48 0 55 0;
#X connect 49 0 47 0;
#X connect 50 0 49 0;
#X connect 54 0 33 0;
#X connect 55 0 46 0;
#X connect 57 0 14 0;
#X connect 58 0 57 0;
#X connect 59 0 60 0;
#X connect 60 0 17 0;
#X connect 61 0 66 0;
#X connect 62 0 64 0;
#X connect 64 0 0 1;
#X connect 66 0 0 1;
#X connect 67 0 76 0;
#X connect 68 0 67 0;
#X connect 69 0 72 0;
#X connect 70 0 69 1;
#X connect 71 0 69 0;
#X connect 72 0 68 0;
#X connect 73 0 50 1;
#X connect 74 0 45 1;
#X connect 75 0 70 0;
#X connect 76 0 36 0;
#X connect 76 0 31 0;
#X connect 76 0 65 0;
#X connect 76 0 0 0;
#X connect 81 0 70 0;
#X connect 83 0 84 0;
#X connect 84 0 82 0;
#X connect 84 0 95 0;
#X connect 85 0 11 0;
#X connect 85 0 27 0;
#X connect 85 0 0 0;
#X connect 85 0 0 1;
#X connect 85 0 83 0;
#X connect 86 0 87 0;
#X connect 86 1 88 0;
#X connect 87 0 89 1;
#X connect 88 0 89 1;
#X connect 89 0 85 0;
#X connect 90 0 86 0;
#X connect 92 0 9 0;
#X connect 93 0 90 0;
#X connect 94 0 85 1;
#X connect 96 0 89 0;
#X coords 0 0 0.5 0.5 0 0 0;
