#N canvas 0 25 1440 782 10;
#X obj 253 55 inlet;
#X obj 334 61 inlet;
#X obj 313 136 spigot;
#X msg 20 422 \; wave sinesum 2051 1 0 -0.11111 0 0.04 0 -0.0204082
0 0.0123457 0 -0.00826446 0 \; \; wave normalize 1 \;;
#X msg 42 230 \; wave sinesum 2051 1 0.5 0.25 0.3 0 0.1 0 0.025 \;
\; wave normalize 1 \;;
#X msg 108 89 \; wave sinesum 2051 1 \; \; wave normalize 1 \;;
#X text 51 112 Wave 1;
#X text -15 251 Wave 2;
#X text -49 455 Wave 3;
#X obj 755 194 tabread4~ wave;
#X obj 756 137 *~ 2051;
#X obj 711 368 *~ 0.25;
#X obj 769 89 phasor~;
#X text 636 297 Single sound source;
#X obj 744 468 *~;
#X obj 918 220 vline~;
#X obj 919 244 pow~ 2;
#X msg 918 197 1 50 \, 0 1000 110;
#X obj 789 559 outlet~;
#X obj 49 187 loadbang;
#X connect 0 0 2 0;
#X connect 1 0 2 1;
#X connect 2 0 12 0;
#X connect 2 0 17 0;
#X connect 9 0 11 0;
#X connect 10 0 9 0;
#X connect 11 0 14 0;
#X connect 12 0 10 0;
#X connect 14 0 18 0;
#X connect 15 0 16 0;
#X connect 16 0 14 1;
#X connect 17 0 15 0;
#X connect 19 0 4 0;
