#N canvas 384 342 497 260 10;
#N canvas 0 23 450 300 handle_polyphony 0;
#X obj 37 37 inlet;
#X obj 37 149 pack 0 0 0;
#X obj 38 120 - 1;
#X obj 38 78 poly 16 1;
#X obj 37 170 outlet;
#X connect 0 0 3 0;
#X connect 1 0 4 0;
#X connect 2 0 1 0;
#X connect 3 0 2 0;
#X connect 3 1 1 1;
#X connect 3 2 1 2;
#X restore 24 106 pd handle_polyphony;
#X floatatom 24 46 5 0 0 0 - - -;
#N canvas 0 23 450 367 create_midi_notes 0;
#X obj 37 37 inlet;
#X obj 36 194 makenote 100 500;
#X floatatom 36 120 5 0 0 0 - - -;
#X obj 36 236 pack 0 0;
#X obj 34 68 t i b;
#X obj 128 114 random 60;
#X obj 128 156 + 50;
#X obj 36 257 outlet;
#X connect 0 0 4 0;
#X connect 1 0 3 0;
#X connect 1 1 3 1;
#X connect 2 0 1 0;
#X connect 3 0 7 0;
#X connect 4 0 2 0;
#X connect 4 1 5 0;
#X connect 5 0 6 0;
#X connect 6 0 1 1;
#X restore 24 76 pd create_midi_notes;
#X obj 253 55 inlet;
#X obj 334 61 inlet;
#X obj 313 136 spigot;
#X obj 305 165 ftom;
#X obj 147 201 outlet~;
#X obj 24 166 *~ 0.99;
#X obj 24 143 clone stringSynth.cl 4;
#X connect 0 0 9 0;
#X connect 1 0 2 0;
#X connect 2 0 0 0;
#X connect 3 0 5 0;
#X connect 4 0 5 1;
#X connect 5 0 6 0;
#X connect 6 0 1 0;
#X connect 8 0 7 0;
#X connect 9 0 8 0;
