#N canvas 425 85 1015 658 10;
#X obj 154 367 osc~;
#X obj 223 349 bng 15 250 50 0 empty empty empty 17 7 0 10 -262144
-1 -1;
#X msg 223 366 1 5;
#X obj 265 382 pack 0 500;
#X obj 265 401 line~;
#X obj 265 424 *~;
#X obj 265 446 *~;
#X obj 155 465 *~;
#X floatatom 332 327 5 0 0 0 - - -;
#X obj 152 555 outlet~;
#X obj 346 263 loadbang;
#X obj 248 261 r decay;
#X obj 265 363 del 10;
#X obj 193 45 inlet;
#X obj 46 45 inlet;
#X floatatom 90 170 5 0 0 0 - - -;
#X obj 57 99 spigot;
#X msg 346 282 1000;
#X obj 158 510 *~ 0.8;
#X connect 0 0 7 0;
#X connect 1 0 2 0;
#X connect 1 0 12 0;
#X connect 2 0 4 0;
#X connect 3 0 4 0;
#X connect 4 0 5 0;
#X connect 4 0 5 1;
#X connect 5 0 6 0;
#X connect 5 0 6 1;
#X connect 6 0 7 1;
#X connect 7 0 18 0;
#X connect 8 0 3 1;
#X connect 10 0 17 0;
#X connect 11 0 8 0;
#X connect 12 0 3 0;
#X connect 13 0 16 1;
#X connect 14 0 16 0;
#X connect 15 0 0 0;
#X connect 15 0 1 0;
#X connect 16 0 15 0;
#X connect 17 0 8 0;
#X connect 18 0 9 0;
