#N canvas 493 212 832 495 10;
#X obj 227 68 t f b b, f 36;
#X obj 249 137 phasor~;
#X obj 249 158 *~ 2051;
#X obj 249 179 tabread4~ wavetable;
#X obj 270 399 *~;
#X obj 185 462 outlet~;
#X obj 122 139 phasor~;
#X obj 122 181 tabread4~ wavetable;
#X text 176 145 detune;
#X obj 623 46 vradio 15 1 0 4 empty empty empty 0 -8 0 10 -262144 -1
-1 1;
#X text 639 44 sine;
#X text 639 60 triangle;
#X text 641 74 sawtooth;
#X text 642 88 square;
#N canvas 220 25 1079 787 set_wavetable 0;
#X obj 37 37 inlet;
#X msg 9 136 \; wavetable sinesum 2051 1 \;;
#X msg 9 374 \; wavetable sinesum 2051 1 0 -0.111111 0 0.04 -0.020408
0 0.0123457 0 -0.00826446 0 \; \; wavetable normalize 1 \;;
#X obj 23 79 sel 0 1 2 3;
#X msg 52 202 \; wavetable sinesum 2051 1 0.5 0.333333 0.25 0.2 0.166667
0.142857 0.125 0.111111 0.1 0.090909 0.0833333 0.076923 0.0714286 0.0666667
0.0625 0.0588235 0.0555556 0.0526316 0.05 0.047619 0.0454545 0.0434783
0.0416667 0.04 0.0384615 0.037037 0.0357143 0.0344828 0.0333333 \;
\; wavetable normalize 1 \;;
#X msg 475 202 \; wavetable sinesum 2051 1 0 0.333333 0 0.2 0 0.142857
0 0.111111 0 0.090909 0 0.076923 0 0.0666667 0 0.0588235 0 0.052613
0 0.047619 0 0.0434783 0 0.04 0 0.037037 0 0.0344838 \; \; wavetable
normalize 1 \;;
#X connect 0 0 3 0;
#X connect 3 0 1 0;
#X connect 3 1 2 0;
#X connect 3 2 4 0;
#X connect 3 3 5 0;
#X restore 622 108 pd set_wavetable;
#X obj 144 25 inlet;
#X obj 3 26 inlet;
#X obj 81 82 spigot;
#X obj 249 330 vcf~ 10;
#X obj 122 160 *~ 2051;
#X obj 121 120 * 1;
#N canvas 45 254 450 300 amplitudeEnv 0;
#X obj 95 28 inlet;
#X obj 98 144 line~;
#X obj 98 165 *~;
#X obj 98 186 *~;
#X obj 97 52 t b b, f 14;
#X msg 97 94 0;
#X floatatom 150 86 5 0 0 0 - - -;
#X obj 97 115 pack 0 1000;
#X text 132 167 amplitude env;
#X obj 98 207 outlet~;
#X obj 212 58 inlet;
#X msg 180 117 1 1;
#X obj 97 72 del 50;
#X connect 0 0 4 0;
#X connect 1 0 2 0;
#X connect 1 0 2 1;
#X connect 2 0 3 0;
#X connect 2 0 3 1;
#X connect 3 0 9 0;
#X connect 4 0 12 0;
#X connect 4 1 11 0;
#X connect 5 0 7 0;
#X connect 6 0 7 1;
#X connect 7 0 1 0;
#X connect 10 0 6 0;
#X connect 11 0 1 0;
#X connect 12 0 5 0;
#X restore 546 153 pd amplitudeEnv 150;
#X msg 534 43 1;
#N canvas 0 25 453 473 filterEnv 0;
#X obj 201 53 inlet;
#X obj 230 183 line~;
#X obj 230 204 *~;
#X obj 232 310 +~ 60;
#X obj 198 93 t b b, f 14;
#X msg 285 141 1;
#X msg 193 121 0;
#X floatatom 271 257 5 0 0 0 - - -;
#X obj 230 246 *~;
#X obj 193 142 pack 0 1000;
#X obj 232 331 outlet~;
#X obj 333 67 inlet;
#X obj 232 289 *~ 6000;
#X connect 0 0 4 0;
#X connect 1 0 2 0;
#X connect 1 0 2 1;
#X connect 2 0 8 0;
#X connect 2 0 8 1;
#X connect 3 0 10 0;
#X connect 4 0 6 0;
#X connect 4 1 5 0;
#X connect 5 0 1 0;
#X connect 6 0 9 0;
#X connect 7 0 12 1;
#X connect 8 0 12 0;
#X connect 9 0 1 0;
#X connect 11 0 9 1;
#X connect 12 0 3 0;
#X restore 377 181 pd filterEnv 1000;
#X obj 286 443 *~ 0.99;
#X obj 491 15 loadbang;
#X connect 0 0 1 0;
#X connect 0 0 20 0;
#X connect 0 1 23 0;
#X connect 0 2 21 0;
#X connect 1 0 2 0;
#X connect 2 0 3 0;
#X connect 3 0 18 0;
#X connect 4 0 24 0;
#X connect 6 0 19 0;
#X connect 7 0 18 0;
#X connect 9 0 14 0;
#X connect 15 0 17 1;
#X connect 16 0 17 0;
#X connect 17 0 0 0;
#X connect 18 1 4 0;
#X connect 19 0 7 0;
#X connect 20 0 6 0;
#X connect 21 0 4 1;
#X connect 22 0 9 0;
#X connect 23 0 18 1;
#X connect 24 0 5 0;
#X connect 25 0 22 0;
